<?xml version="1.0" encoding="UTF-8" standalone="no"?>
<svg
   xmlns:dc="http://purl.org/dc/elements/1.1/"
   xmlns:cc="http://creativecommons.org/ns#"
   xmlns:rdf="http://www.w3.org/1999/02/22-rdf-syntax-ns#"
   xmlns:svg="http://www.w3.org/2000/svg"
   xmlns="http://www.w3.org/2000/svg"
   version="1.1" width="155" height="225" viewBox="-3 -2 155 225">
  <metadata>
    <rdf:RDF>
      <cc:Work rdf:about="">
        <dc:format>image/svg+xml</dc:format>
        <dc:type rdf:resource="http://purl.org/dc/dcmitype/StillImage" />
        <dc:title>Ebbinghaus Illusion</dc:title>
      </cc:Work>
    </rdf:RDF>
  </metadata>
  <title>Ebbinghaus Illusion</title>
  <g style="fill:none;stroke:#000000;stroke-width:3;stroke-miterlimit:4;stroke-opacity:1;stroke-dasharray:none;stroke-dashoffset:0">
    <circle cx="75.612053" cy="66.302605" r="14.067359"
       transform="translate(6,2)" />
    <circle cx="75.612053" cy="66.302605" r="14.067359"
       transform="translate(-38,113.41808)" />
    <circle cx="17.804001" cy="153.56419" r="8.5722971"
       transform="translate(2.6376298,2.6376298)" />
    <circle cx="17.804001" cy="153.56419" r="8.5722971"
       transform="translate(36.26741,1.5386164)" />
    <circle cx="17.804001" cy="153.56419" r="8.5722971"
       transform="translate(46.378325,32.750569)" />
    <circle cx="17.804001" cy="153.56419" r="8.5722971"
       transform="translate(20.441631,55.170422)" />
    <circle cx="17.804001" cy="153.56419" r="8.5722971"
       transform="translate(-5.9346669,36.267409)" />
    <circle cx="31.211952" cy="73.775894" r="22.859459"
       transform="translate(2,0)" />
    <circle cx="31.211952" cy="73.775894" r="22.859459"
       transform="translate(29.893142,-46.59813)" />
    <circle cx="31.211952" cy="73.775894" r="22.859459"
       ry="22.859459" transform="translate(85.283367,-40.004055)" />
    <circle cx="31.211952" cy="73.775894" r="22.859459"
       transform="translate(92.317039,17.584196)" />
    <circle cx="31.211952" cy="73.775894" r="22.859459"
       transform="translate(40.443659,39.564444)" />
  </g>
</svg>
